<svg xmlns="http://www.w3.org/2000/svg" viewBox="0 0 720 365" width="720" height="365">

  <g transform="translate(312,20) translate(48,50) scale(1.2) translate(-48,-50)"><g fill="none" stroke="#c14f21" stroke-width="2.6" stroke-linejoin="round" stroke-linecap="round">
  <rect x="20" y="34" width="24" height="44"></rect><rect x="52" y="22" width="24" height="56"></rect>
  <line x1="26" y1="44" x2="38" y2="44"></line><line x1="26" y1="54" x2="38" y2="54"></line><line x1="26" y1="64" x2="38" y2="64"></line>
  <line x1="58" y1="34" x2="70" y2="34"></line><line x1="58" y1="44" x2="70" y2="44"></line><line x1="58" y1="54" x2="70" y2="54"></line><line x1="58" y1="64" x2="70" y2="64"></line>
  <line x1="14" y1="78" x2="82" y2="78"></line></g></g>
  <text x="360" y="200" text-anchor="middle" font-family="Jost,sans-serif" font-weight="400" font-size="40" letter-spacing="24" fill="#c14f21">HUB</text>
  <svg x="100" y="236" width="520" height="104.98259572352063" viewBox="141 378 6033 1218"><path fill="#c14f21" fill-rule="evenodd" d="M1525.0 381.3L1537.5 381.3L1537.5 387.5L1543.8 387.5L1543.8 406.3L1550.0 406.3L1550.0 425.0L1556.3 425.0L1556.3 437.5L1562.5 437.5L1562.5 450.0L1568.8 450.0L1568.8 462.5L1575.0 462.5L1575.0 481.3L1581.3 481.3L1581.3 500.0L1587.5 500.0L1587.5 512.5L1593.8 512.5L1593.8 531.3L1600.0 531.3L1600.0 543.8L1606.3 543.8L1606.3 562.5L1612.5 562.5L1612.5 575.0L1618.8 575.0L1618.8 593.8L1625.0 593.8L1625.0 606.3L1631.3 606.3L1631.3 625.0L1637.5 625.0L1637.5 637.5L1643.8 637.5L1643.8 650.0L1650.0 650.0L1650.0 668.8L1656.3 668.8L1656.3 681.3L1662.5 681.3L1662.5 700.0L1668.8 700.0L1668.8 712.5L1675.0 712.5L1675.0 731.3L1681.3 731.3L1681.3 750.0L1687.5 750.0L1687.5 762.5L1693.8 762.5L1693.8 781.3L1700.0 781.3L1700.0 793.8L1706.3 793.8L1706.3 812.5L1712.5 812.5L1712.5 825.0L1718.8 825.0L1718.8 843.8L1725.0 843.8L1725.0 856.3L1731.3 856.3L1731.3 868.8L1737.5 868.8L1737.5 887.5L1743.8 887.5L1743.8 900.0L1750.0 900.0L1750.0 918.8L1756.3 918.8L1756.3 931.3L1762.5 931.3L1762.5 950.0L1768.8 950.0L1768.8 962.5L1775.0 962.5L1775.0 981.3L1781.3 981.3L1781.3 993.8L1787.5 993.8L1787.5 1012.5L1793.8 1012.5L1793.8 1031.3L1800.0 1031.3L1800.0 1043.8L1806.3 1043.8L1806.3 1056.3L1812.5 1056.3L1812.5 1068.8L1818.8 1068.8L1818.8 1087.5L1825.0 1087.5L1825.0 1106.3L1831.3 1106.3L1831.3 1118.8L1837.5 1118.8L1837.5 1137.5L1843.8 1137.5L1843.8 1150.0L1850.0 1150.0L1850.0 1168.8L1856.3 1168.8L1856.3 1181.3L1862.5 1181.3L1862.5 1200.0L1868.8 1200.0L1868.8 1212.5L1875.0 1212.5L1875.0 1231.3L1881.3 1231.3L1881.3 1243.8L1887.5 1243.8L1887.5 1256.3L1893.8 1256.3L1893.8 1275.0L1900.0 1275.0L1900.0 1287.5L1906.3 1287.5L1906.3 1306.3L1912.5 1306.3L1912.5 1318.8L1918.8 1318.8L1918.8 1337.5L1925.0 1337.5L1925.0 1350.0L1931.3 1350.0L1931.3 1368.8L1937.5 1368.8L1937.5 1387.5L1943.8 1387.5L1943.8 1400.0L1950.0 1400.0L1950.0 1418.8L1956.3 1418.8L1956.3 1431.3L1962.5 1431.3L1962.5 1450.0L1968.8 1450.0L1968.8 1462.5L1975.0 1462.5L1975.0 1475.0L1981.3 1475.0L1981.3 1493.8L1987.5 1493.8L1987.5 1506.3L1993.8 1506.3L1993.8 1525.0L2000.0 1525.0L2000.0 1537.5L2006.3 1537.5L2006.3 1556.3L2012.5 1556.3L2012.5 1568.8L2018.8 1568.8L2018.8 1587.5L1956.3 1587.5L1956.3 1575.0L1950.0 1575.0L1950.0 1556.3L1943.8 1556.3L1943.8 1543.8L1937.5 1543.8L1937.5 1531.3L1931.3 1531.3L1931.3 1512.5L1925.0 1512.5L1925.0 1500.0L1918.8 1500.0L1918.8 1481.3L1912.5 1481.3L1912.5 1468.8L1906.3 1468.8L1906.3 1450.0L1900.0 1450.0L1900.0 1437.5L1893.8 1437.5L1893.8 1418.8L1887.5 1418.8L1887.5 1406.3L1881.3 1406.3L1881.3 1387.5L1875.0 1387.5L1875.0 1375.0L1868.8 1375.0L1868.8 1356.3L1862.5 1356.3L1862.5 1337.5L1856.3 1337.5L1856.3 1325.0L1850.0 1325.0L1850.0 1306.3L1843.8 1306.3L1843.8 1293.8L1837.5 1293.8L1837.5 1275.0L1831.3 1275.0L1831.3 1262.5L1825.0 1262.5L1825.0 1243.8L1818.8 1243.8L1818.8 1225.0L1812.5 1225.0L1812.5 1212.5L1806.3 1212.5L1806.3 1193.8L1800.0 1193.8L1800.0 1181.3L1793.8 1181.3L1793.8 1162.5L1787.5 1162.5L1787.5 1150.0L1781.3 1150.0L1781.3 1131.3L1775.0 1131.3L1775.0 1118.8L1768.8 1118.8L1768.8 1100.0L1762.5 1100.0L1762.5 1081.3L1756.3 1081.3L1756.3 1068.8L1750.0 1068.8L1750.0 1050.0L1743.8 1050.0L1743.8 1037.5L1737.5 1037.5L1737.5 1018.8L1731.3 1018.8L1731.3 1006.3L1725.0 1006.3L1725.0 987.5L1718.8 987.5L1718.8 968.8L1712.5 968.8L1712.5 956.3L1706.3 956.3L1706.3 937.5L1700.0 937.5L1700.0 925.0L1693.8 925.0L1693.8 906.3L1687.5 906.3L1687.5 893.8L1681.3 893.8L1681.3 875.0L1675.0 875.0L1675.0 862.5L1668.8 862.5L1668.8 843.8L1662.5 843.8L1662.5 825.0L1656.3 825.0L1656.3 812.5L1650.0 812.5L1650.0 800.0L1643.8 800.0L1643.8 787.5L1637.5 787.5L1637.5 768.8L1631.3 768.8L1631.3 756.3L1625.0 756.3L1625.0 737.5L1618.8 737.5L1618.8 718.8L1612.5 718.8L1612.5 706.3L1606.3 706.3L1606.3 687.5L1600.0 687.5L1600.0 675.0L1593.8 675.0L1593.8 656.3L1587.5 656.3L1587.5 643.8L1581.3 643.8L1581.3 625.0L1575.0 625.0L1575.0 612.5L1568.8 612.5L1568.8 593.8L1562.5 593.8L1562.5 575.0L1556.3 575.0L1556.3 562.5L1550.0 562.5L1550.0 543.8L1543.8 543.8L1543.8 531.3L1537.5 531.3L1537.5 512.5L1531.3 512.5L1531.3 525.0L1525.0 525.0L1525.0 537.5L1518.8 537.5L1518.8 556.3L1512.5 556.3L1512.5 568.8L1506.3 568.8L1506.3 587.5L1500.0 587.5L1500.0 600.0L1493.8 600.0L1493.8 618.8L1487.5 618.8L1487.5 631.3L1481.3 631.3L1481.3 650.0L1475.0 650.0L1475.0 668.8L1468.8 668.8L1468.8 681.3L1462.5 681.3L1462.5 700.0L1456.3 700.0L1456.3 712.5L1450.0 712.5L1450.0 731.3L1443.8 731.3L1443.8 743.8L1437.5 743.8L1437.5 762.5L1431.3 762.5L1431.3 775.0L1425.0 775.0L1425.0 793.8L1418.8 793.8L1418.8 812.5L1412.5 812.5L1412.5 818.8L1406.3 818.8L1406.3 837.5L1400.0 837.5L1400.0 850.0L1393.8 850.0L1393.8 868.8L1387.5 868.8L1387.5 881.3L1381.3 881.3L1381.3 900.0L1375.0 900.0L1375.0 918.8L1368.8 918.8L1368.8 931.3L1362.5 931.3L1362.5 950.0L1356.3 950.0L1356.3 962.5L1350.0 962.5L1350.0 981.3L1343.8 981.3L1343.8 993.8L1337.5 993.8L1337.5 1012.5L1331.3 1012.5L1331.3 1031.3L1325.0 1031.3L1325.0 1043.8L1318.8 1043.8L1318.8 1062.5L1312.5 1062.5L1312.5 1068.8L1306.3 1068.8L1306.3 1087.5L1300.0 1087.5L1300.0 1100.0L1293.8 1100.0L1293.8 1118.8L1287.5 1118.8L1287.5 1137.5L1281.3 1137.5L1281.3 1150.0L1275.0 1150.0L1275.0 1168.8L1268.8 1168.8L1268.8 1181.3L1262.5 1181.3L1262.5 1200.0L1256.3 1200.0L1256.3 1212.5L1250.0 1212.5L1250.0 1231.3L1243.8 1231.3L1243.8 1243.8L1237.5 1243.8L1237.5 1262.5L1231.3 1262.5L1231.3 1281.3L1225.0 1281.3L1225.0 1293.8L1218.8 1293.8L1218.8 1312.5L1212.5 1312.5L1212.5 1325.0L1206.3 1325.0L1206.3 1343.8L1200.0 1343.8L1200.0 1356.3L1193.8 1356.3L1193.8 1375.0L1187.5 1375.0L1187.5 1387.5L1181.3 1387.5L1181.3 1400.0L1175.0 1400.0L1175.0 1418.8L1168.8 1418.8L1168.8 1431.3L1162.5 1431.3L1162.5 1450.0L1156.3 1450.0L1156.3 1462.5L1150.0 1462.5L1150.0 1481.3L1143.8 1481.3L1143.8 1493.8L1137.5 1493.8L1137.5 1512.5L1131.3 1512.5L1131.3 1531.3L1125.0 1531.3L1125.0 1543.8L1118.8 1543.8L1118.8 1562.5L1112.5 1562.5L1112.5 1575.0L1106.3 1575.0L1106.3 1587.5L1050.0 1587.5L1050.0 1568.8L1056.3 1568.8L1056.3 1556.3L1062.5 1556.3L1062.5 1537.5L1068.8 1537.5L1068.8 1518.8L1075.0 1518.8L1075.0 1506.3L1081.3 1506.3L1081.3 1487.5L1087.5 1487.5L1087.5 1475.0L1093.8 1475.0L1093.8 1456.3L1100.0 1456.3L1100.0 1450.0L1106.3 1450.0L1106.3 1431.3L1112.5 1431.3L1112.5 1412.5L1118.8 1412.5L1118.8 1400.0L1125.0 1400.0L1125.0 1381.3L1131.3 1381.3L1131.3 1368.8L1137.5 1368.8L1137.5 1350.0L1143.8 1350.0L1143.8 1337.5L1150.0 1337.5L1150.0 1318.8L1156.3 1318.8L1156.3 1306.3L1162.5 1306.3L1162.5 1287.5L1168.8 1287.5L1168.8 1268.8L1175.0 1268.8L1175.0 1256.3L1181.3 1256.3L1181.3 1237.5L1187.5 1237.5L1187.5 1231.3L1193.8 1231.3L1193.8 1212.5L1200.0 1212.5L1200.0 1193.8L1206.3 1193.8L1206.3 1175.0L1212.5 1175.0L1212.5 1162.5L1218.8 1162.5L1218.8 1150.0L1225.0 1150.0L1225.0 1131.3L1231.3 1131.3L1231.3 1118.8L1237.5 1118.8L1237.5 1100.0L1243.8 1100.0L1243.8 1087.5L1250.0 1087.5L1250.0 1068.8L1256.3 1068.8L1256.3 1056.3L1262.5 1056.3L1262.5 1037.5L1268.8 1037.5L1268.8 1018.8L1275.0 1018.8L1275.0 1006.3L1281.3 1006.3L1281.3 993.8L1287.5 993.8L1287.5 975.0L1293.8 975.0L1293.8 956.3L1300.0 956.3L1300.0 943.8L1306.3 943.8L1306.3 931.3L1312.5 931.3L1312.5 918.8L1318.8 918.8L1318.8 900.0L1325.0 900.0L1325.0 881.3L1331.3 881.3L1331.3 868.8L1337.5 868.8L1337.5 850.0L1343.8 850.0L1343.8 837.5L1350.0 837.5L1350.0 818.8L1356.3 818.8L1356.3 806.3L1362.5 806.3L1362.5 787.5L1368.8 787.5L1368.8 775.0L1375.0 775.0L1375.0 756.3L1381.3 756.3L1381.3 737.5L1387.5 737.5L1387.5 731.3L1393.8 731.3L1393.8 712.5L1400.0 712.5L1400.0 700.0L1406.3 700.0L1406.3 681.3L1412.5 681.3L1412.5 662.5L1418.8 662.5L1418.8 650.0L1425.0 650.0L1425.0 631.3L1431.3 631.3L1431.3 618.8L1437.5 618.8L1437.5 600.0L1443.8 600.0L1443.8 587.5L1450.0 587.5L1450.0 568.8L1456.3 568.8L1456.3 556.3L1462.5 556.3L1462.5 537.5L1468.8 537.5L1468.8 525.0L1475.0 525.0L1475.0 506.3L1481.3 506.3L1481.3 493.8L1487.5 493.8L1487.5 481.3L1493.8 481.3L1493.8 462.5L1500.0 462.5L1500.0 450.0L1506.3 450.0L1506.3 431.3L1512.5 431.3L1512.5 418.8L1518.8 418.8L1518.8 400.0L1525.0 400.0L1525.0 381.3ZM3375.0 425.0L3518.8 425.0L3518.8 431.3L3550.0 431.3L3550.0 437.5L3587.5 437.5L3587.5 443.8L3612.5 443.8L3612.5 450.0L3637.5 450.0L3637.5 456.3L3662.5 456.3L3662.5 462.5L3675.0 462.5L3675.0 468.8L3693.8 468.8L3693.8 475.0L3706.3 475.0L3706.3 481.3L3725.0 481.3L3725.0 487.5L3737.5 487.5L3737.5 506.3L3731.3 506.3L3731.3 518.8L3725.0 518.8L3725.0 531.3L3718.8 531.3L3718.8 537.5L3712.5 537.5L3712.5 531.3L3700.0 531.3L3700.0 525.0L3681.3 525.0L3681.3 518.8L3668.8 518.8L3668.8 512.5L3643.8 512.5L3643.8 506.3L3625.0 506.3L3625.0 500.0L3606.3 500.0L3606.3 493.8L3581.3 493.8L3581.3 487.5L3556.3 487.5L3556.3 481.3L3512.5 481.3L3512.5 475.0L3387.5 475.0L3387.5 481.3L3350.0 481.3L3350.0 487.5L3337.5 487.5L3337.5 493.8L3318.8 493.8L3318.8 500.0L3306.3 500.0L3306.3 506.3L3293.8 506.3L3293.8 512.5L3281.3 512.5L3281.3 518.8L3268.8 518.8L3268.8 525.0L3262.5 525.0L3262.5 531.3L3256.3 531.3L3256.3 537.5L3250.0 537.5L3250.0 543.8L3243.8 543.8L3243.8 550.0L3237.5 550.0L3237.5 556.3L3231.3 556.3L3231.3 562.5L3225.0 562.5L3225.0 568.8L3218.8 568.8L3218.8 575.0L3212.5 575.0L3212.5 587.5L3206.3 587.5L3206.3 600.0L3200.0 600.0L3200.0 606.3L3193.8 606.3L3193.8 631.3L3187.5 631.3L3187.5 650.0L3181.3 650.0L3181.3 718.8L3187.5 718.8L3187.5 737.5L3193.8 737.5L3193.8 756.3L3200.0 756.3L3200.0 768.8L3206.3 768.8L3206.3 781.3L3212.5 781.3L3212.5 787.5L3218.8 787.5L3218.8 800.0L3225.0 800.0L3225.0 806.3L3231.3 806.3L3231.3 812.5L3237.5 812.5L3237.5 818.8L3243.8 818.8L3243.8 825.0L3256.3 825.0L3256.3 831.3L3262.5 831.3L3262.5 837.5L3275.0 837.5L3275.0 843.8L3281.3 843.8L3281.3 850.0L3287.5 850.0L3287.5 856.3L3300.0 856.3L3300.0 862.5L3312.5 862.5L3312.5 868.8L3325.0 868.8L3325.0 875.0L3337.5 875.0L3337.5 881.3L3350.0 881.3L3350.0 887.5L3368.8 887.5L3368.8 893.8L3375.0 893.8L3375.0 900.0L3393.8 900.0L3393.8 906.3L3406.3 906.3L3406.3 912.5L3425.0 912.5L3425.0 918.8L3437.5 918.8L3437.5 925.0L3456.3 925.0L3456.3 931.3L3475.0 931.3L3475.0 937.5L3487.5 937.5L3487.5 943.8L3506.3 943.8L3506.3 950.0L3518.8 950.0L3518.8 956.3L3537.5 956.3L3537.5 962.5L3550.0 962.5L3550.0 968.8L3562.5 968.8L3562.5 975.0L3581.3 975.0L3581.3 981.3L3593.8 981.3L3593.8 987.5L3606.3 987.5L3606.3 993.8L3618.8 993.8L3618.8 1000.0L3625.0 1000.0L3625.0 1006.3L3637.5 1006.3L3637.5 1012.5L3650.0 1012.5L3650.0 1018.8L3656.3 1018.8L3656.3 1025.0L3662.5 1025.0L3662.5 1031.3L3675.0 1031.3L3675.0 1037.5L3681.3 1037.5L3681.3 1043.8L3693.8 1043.8L3693.8 1050.0L3700.0 1050.0L3700.0 1056.3L3706.3 1056.3L3706.3 1062.5L3712.5 1062.5L3712.5 1068.8L3718.8 1068.8L3718.8 1075.0L3725.0 1075.0L3725.0 1081.3L3731.3 1081.3L3731.3 1093.8L3737.5 1093.8L3737.5 1100.0L3743.8 1100.0L3743.8 1112.5L3750.0 1112.5L3750.0 1118.8L3756.3 1118.8L3756.3 1131.3L3762.5 1131.3L3762.5 1150.0L3768.8 1150.0L3768.8 1156.3L3775.0 1156.3L3775.0 1181.3L3781.3 1181.3L3781.3 1218.8L3787.5 1218.8L3787.5 1318.8L3781.3 1318.8L3781.3 1356.3L3775.0 1356.3L3775.0 1381.3L3768.8 1381.3L3768.8 1393.8L3762.5 1393.8L3762.5 1412.5L3756.3 1412.5L3756.3 1425.0L3750.0 1425.0L3750.0 1437.5L3743.8 1437.5L3743.8 1443.8L3737.5 1443.8L3737.5 1456.3L3731.3 1456.3L3731.3 1462.5L3725.0 1462.5L3725.0 1475.0L3718.8 1475.0L3718.8 1481.3L3712.5 1481.3L3712.5 1487.5L3706.3 1487.5L3706.3 1493.8L3700.0 1493.8L3700.0 1500.0L3693.8 1500.0L3693.8 1506.3L3687.5 1506.3L3687.5 1512.5L3681.3 1512.5L3681.3 1518.8L3675.0 1518.8L3675.0 1525.0L3662.5 1525.0L3662.5 1531.3L3656.3 1531.3L3656.3 1537.5L3643.8 1537.5L3643.8 1543.8L3637.5 1543.8L3637.5 1550.0L3625.0 1550.0L3625.0 1556.3L3612.5 1556.3L3612.5 1562.5L3593.8 1562.5L3593.8 1568.8L3581.3 1568.8L3581.3 1575.0L3562.5 1575.0L3562.5 1581.3L3543.8 1581.3L3543.8 1587.5L3506.3 1587.5L3506.3 1593.8L3468.8 1593.8L3468.8 1600.0L3387.5 1600.0L3387.5 1593.8L3343.8 1593.8L3343.8 1587.5L3306.3 1587.5L3306.3 1581.3L3287.5 1581.3L3287.5 1575.0L3262.5 1575.0L3262.5 1568.8L3243.8 1568.8L3243.8 1562.5L3225.0 1562.5L3225.0 1556.3L3206.3 1556.3L3206.3 1550.0L3193.8 1550.0L3193.8 1543.8L3181.3 1543.8L3181.3 1537.5L3168.8 1537.5L3168.8 1531.3L3156.3 1531.3L3156.3 1525.0L3143.8 1525.0L3143.8 1518.8L3131.3 1518.8L3131.3 1512.5L3125.0 1512.5L3125.0 1506.3L3112.5 1506.3L3112.5 1500.0L3100.0 1500.0L3100.0 1493.8L3093.8 1493.8L3093.8 1487.5L3081.3 1487.5L3081.3 1481.3L3075.0 1481.3L3075.0 1468.8L3081.3 1468.8L3081.3 1456.3L3087.5 1456.3L3087.5 1450.0L3093.8 1450.0L3093.8 1437.5L3100.0 1437.5L3100.0 1431.3L3106.3 1431.3L3106.3 1437.5L3112.5 1437.5L3112.5 1443.8L3125.0 1443.8L3125.0 1450.0L3137.5 1450.0L3137.5 1456.3L3143.8 1456.3L3143.8 1462.5L3156.3 1462.5L3156.3 1468.8L3162.5 1468.8L3162.5 1475.0L3181.3 1475.0L3181.3 1481.3L3187.5 1481.3L3187.5 1487.5L3206.3 1487.5L3206.3 1493.8L3218.8 1493.8L3218.8 1500.0L3231.3 1500.0L3231.3 1506.3L3250.0 1506.3L3250.0 1512.5L3262.5 1512.5L3262.5 1518.8L3287.5 1518.8L3287.5 1525.0L3300.0 1525.0L3300.0 1531.3L3331.3 1531.3L3331.3 1537.5L3356.3 1537.5L3356.3 1543.8L3493.8 1543.8L3493.8 1537.5L3512.5 1537.5L3512.5 1531.3L3537.5 1531.3L3537.5 1525.0L3556.3 1525.0L3556.3 1518.8L3575.0 1518.8L3575.0 1512.5L3587.5 1512.5L3587.5 1506.3L3600.0 1506.3L3600.0 1500.0L3612.5 1500.0L3612.5 1493.8L3618.8 1493.8L3618.8 1487.5L3625.0 1487.5L3625.0 1481.3L3637.5 1481.3L3637.5 1475.0L3643.8 1475.0L3643.8 1468.8L3650.0 1468.8L3650.0 1462.5L3656.3 1462.5L3656.3 1456.3L3662.5 1456.3L3662.5 1450.0L3668.8 1450.0L3668.8 1443.8L3675.0 1443.8L3675.0 1437.5L3681.3 1437.5L3681.3 1425.0L3687.5 1425.0L3687.5 1418.8L3693.8 1418.8L3693.8 1406.3L3700.0 1406.3L3700.0 1400.0L3706.3 1400.0L3706.3 1381.3L3712.5 1381.3L3712.5 1368.8L3718.8 1368.8L3718.8 1343.8L3725.0 1343.8L3725.0 1300.0L3731.3 1300.0L3731.3 1250.0L3725.0 1250.0L3725.0 1200.0L3718.8 1200.0L3718.8 1181.3L3712.5 1181.3L3712.5 1168.8L3706.3 1168.8L3706.3 1156.3L3700.0 1156.3L3700.0 1143.8L3693.8 1143.8L3693.8 1137.5L3687.5 1137.5L3687.5 1131.3L3681.3 1131.3L3681.3 1118.8L3675.0 1118.8L3675.0 1112.5L3668.8 1112.5L3668.8 1106.3L3662.5 1106.3L3662.5 1100.0L3656.3 1100.0L3656.3 1093.8L3650.0 1093.8L3650.0 1087.5L3637.5 1087.5L3637.5 1081.3L3631.3 1081.3L3631.3 1075.0L3625.0 1075.0L3625.0 1068.8L3618.8 1068.8L3618.8 1062.5L3606.3 1062.5L3606.3 1056.3L3593.8 1056.3L3593.8 1050.0L3587.5 1050.0L3587.5 1043.8L3575.0 1043.8L3575.0 1037.5L3562.5 1037.5L3562.5 1031.3L3550.0 1031.3L3550.0 1025.0L3531.3 1025.0L3531.3 1018.8L3525.0 1018.8L3525.0 1012.5L3506.3 1012.5L3506.3 1006.3L3493.8 1006.3L3493.8 1000.0L3475.0 1000.0L3475.0 993.8L3468.8 993.8L3468.8 987.5L3450.0 987.5L3450.0 981.3L3425.0 981.3L3425.0 975.0L3412.5 975.0L3412.5 968.8L3393.8 968.8L3393.8 962.5L3381.3 962.5L3381.3 956.3L3362.5 956.3L3362.5 950.0L3350.0 950.0L3350.0 943.8L3331.3 943.8L3331.3 937.5L3318.8 937.5L3318.8 931.3L3306.3 931.3L3306.3 925.0L3287.5 925.0L3287.5 918.8L3281.3 918.8L3281.3 912.5L3268.8 912.5L3268.8 906.3L3256.3 906.3L3256.3 900.0L3250.0 900.0L3250.0 893.8L3237.5 893.8L3237.5 887.5L3231.3 887.5L3231.3 881.3L3218.8 881.3L3218.8 875.0L3212.5 875.0L3212.5 868.8L3206.3 868.8L3206.3 862.5L3200.0 862.5L3200.0 856.3L3193.8 856.3L3193.8 850.0L3187.5 850.0L3187.5 843.8L3181.3 843.8L3181.3 837.5L3175.0 837.5L3175.0 831.3L3168.8 831.3L3168.8 825.0L3162.5 825.0L3162.5 812.5L3156.3 812.5L3156.3 806.3L3150.0 806.3L3150.0 793.8L3143.8 793.8L3143.8 781.3L3137.5 781.3L3137.5 762.5L3131.3 762.5L3131.3 743.8L3125.0 743.8L3125.0 637.5L3131.3 637.5L3131.3 618.8L3137.5 618.8L3137.5 600.0L3143.8 600.0L3143.8 587.5L3150.0 587.5L3150.0 568.8L3156.3 568.8L3156.3 562.5L3162.5 562.5L3162.5 550.0L3168.8 550.0L3168.8 543.8L3175.0 543.8L3175.0 537.5L3181.3 537.5L3181.3 525.0L3193.8 525.0L3193.8 512.5L3206.3 512.5L3206.3 500.0L3218.8 500.0L3218.8 493.8L3225.0 493.8L3225.0 487.5L3231.3 487.5L3231.3 481.3L3243.8 481.3L3243.8 475.0L3250.0 475.0L3250.0 468.8L3262.5 468.8L3262.5 462.5L3275.0 462.5L3275.0 456.3L3287.5 456.3L3287.5 450.0L3306.3 450.0L3306.3 443.8L3318.8 443.8L3318.8 437.5L3350.0 437.5L3350.0 431.3L3375.0 431.3L3375.0 425.0ZM737.5 431.3L812.5 431.3L812.5 437.5L806.3 437.5L806.3 443.8L800.0 443.8L800.0 450.0L793.8 450.0L793.8 456.3L787.5 456.3L787.5 462.5L781.3 462.5L781.3 468.8L775.0 468.8L775.0 475.0L768.8 475.0L768.8 481.3L756.3 481.3L756.3 487.5L750.0 487.5L750.0 493.8L743.8 493.8L743.8 500.0L737.5 500.0L737.5 506.3L731.3 506.3L731.3 512.5L725.0 512.5L725.0 518.8L718.8 518.8L718.8 525.0L712.5 525.0L712.5 531.3L706.3 531.3L706.3 537.5L700.0 537.5L700.0 543.8L693.8 543.8L693.8 550.0L687.5 550.0L687.5 556.3L681.3 556.3L681.3 562.5L675.0 562.5L675.0 568.8L668.8 568.8L668.8 575.0L662.5 575.0L662.5 581.3L656.3 581.3L656.3 587.5L650.0 587.5L650.0 593.8L643.8 593.8L643.8 600.0L637.5 600.0L637.5 606.3L631.3 606.3L631.3 612.5L625.0 612.5L625.0 618.8L618.8 618.8L618.8 625.0L612.5 625.0L612.5 631.3L606.3 631.3L606.3 637.5L600.0 637.5L600.0 643.8L593.8 643.8L593.8 650.0L581.3 650.0L581.3 656.3L575.0 656.3L575.0 662.5L568.8 662.5L568.8 668.8L562.5 668.8L562.5 675.0L556.3 675.0L556.3 681.3L550.0 681.3L550.0 687.5L543.8 687.5L543.8 693.8L537.5 693.8L537.5 700.0L531.3 700.0L531.3 706.3L525.0 706.3L525.0 712.5L518.8 712.5L518.8 718.8L512.5 718.8L512.5 725.0L506.3 725.0L506.3 731.3L500.0 731.3L500.0 737.5L493.8 737.5L493.8 743.8L487.5 743.8L487.5 750.0L481.3 750.0L481.3 756.3L475.0 756.3L475.0 762.5L468.8 762.5L468.8 768.8L462.5 768.8L462.5 775.0L456.3 775.0L456.3 781.3L450.0 781.3L450.0 787.5L443.8 787.5L443.8 793.8L437.5 793.8L437.5 800.0L431.3 800.0L431.3 806.3L425.0 806.3L425.0 812.5L418.8 812.5L418.8 818.8L412.5 818.8L412.5 825.0L406.3 825.0L406.3 831.3L400.0 831.3L400.0 837.5L393.8 837.5L393.8 843.8L387.5 843.8L387.5 850.0L381.3 850.0L381.3 856.3L375.0 856.3L375.0 862.5L368.8 862.5L368.8 868.8L362.5 868.8L362.5 875.0L356.3 875.0L356.3 881.3L350.0 881.3L350.0 887.5L343.8 887.5L343.8 893.8L337.5 893.8L337.5 906.3L343.8 906.3L343.8 912.5L350.0 912.5L350.0 918.8L356.3 918.8L356.3 925.0L362.5 925.0L362.5 931.3L368.8 931.3L368.8 943.8L375.0 943.8L375.0 950.0L381.3 950.0L381.3 956.3L387.5 956.3L387.5 968.8L393.8 968.8L393.8 975.0L400.0 975.0L400.0 981.3L406.3 981.3L406.3 987.5L412.5 987.5L412.5 1000.0L418.8 1000.0L418.8 1006.3L425.0 1006.3L425.0 1012.5L431.3 1012.5L431.3 1025.0L437.5 1025.0L437.5 1031.3L443.8 1031.3L443.8 1037.5L450.0 1037.5L450.0 1043.8L456.3 1043.8L456.3 1056.3L462.5 1056.3L462.5 1062.5L468.8 1062.5L468.8 1068.8L475.0 1068.8L475.0 1075.0L481.3 1075.0L481.3 1087.5L487.5 1087.5L487.5 1093.8L493.8 1093.8L493.8 1100.0L500.0 1100.0L500.0 1112.5L506.3 1112.5L506.3 1118.8L512.5 1118.8L512.5 1125.0L518.8 1125.0L518.8 1131.3L525.0 1131.3L525.0 1137.5L531.3 1137.5L531.3 1150.0L537.5 1150.0L537.5 1156.3L543.8 1156.3L543.8 1162.5L550.0 1162.5L550.0 1175.0L556.3 1175.0L556.3 1181.3L562.5 1181.3L562.5 1187.5L568.8 1187.5L568.8 1193.8L575.0 1193.8L575.0 1206.3L581.3 1206.3L581.3 1212.5L587.5 1212.5L587.5 1218.8L593.8 1218.8L593.8 1231.3L600.0 1231.3L600.0 1237.5L606.3 1237.5L606.3 1243.8L612.5 1243.8L612.5 1250.0L618.8 1250.0L618.8 1262.5L625.0 1262.5L625.0 1268.8L631.3 1268.8L631.3 1275.0L637.5 1275.0L637.5 1281.3L643.8 1281.3L643.8 1287.5L650.0 1287.5L650.0 1300.0L656.3 1300.0L656.3 1306.3L662.5 1306.3L662.5 1318.8L668.8 1318.8L668.8 1325.0L675.0 1325.0L675.0 1331.3L681.3 1331.3L681.3 1337.5L687.5 1337.5L687.5 1343.8L693.8 1343.8L693.8 1356.3L700.0 1356.3L700.0 1362.5L706.3 1362.5L706.3 1375.0L712.5 1375.0L712.5 1381.3L718.8 1381.3L718.8 1387.5L725.0 1387.5L725.0 1393.8L731.3 1393.8L731.3 1400.0L737.5 1400.0L737.5 1412.5L743.8 1412.5L743.8 1418.8L750.0 1418.8L750.0 1425.0L756.3 1425.0L756.3 1431.3L762.5 1431.3L762.5 1443.8L768.8 1443.8L768.8 1450.0L775.0 1450.0L775.0 1456.3L781.3 1456.3L781.3 1468.8L787.5 1468.8L787.5 1475.0L793.8 1475.0L793.8 1481.3L800.0 1481.3L800.0 1487.5L806.3 1487.5L806.3 1500.0L812.5 1500.0L812.5 1506.3L818.8 1506.3L818.8 1512.5L825.0 1512.5L825.0 1525.0L831.3 1525.0L831.3 1531.3L837.5 1531.3L837.5 1537.5L843.8 1537.5L843.8 1543.8L850.0 1543.8L850.0 1556.3L856.3 1556.3L856.3 1562.5L862.5 1562.5L862.5 1568.8L868.8 1568.8L868.8 1575.0L875.0 1575.0L875.0 1587.5L800.0 1587.5L800.0 1575.0L793.8 1575.0L793.8 1568.8L787.5 1568.8L787.5 1562.5L781.3 1562.5L781.3 1556.3L775.0 1556.3L775.0 1543.8L768.8 1543.8L768.8 1537.5L762.5 1537.5L762.5 1531.3L756.3 1531.3L756.3 1518.8L750.0 1518.8L750.0 1512.5L743.8 1512.5L743.8 1506.3L737.5 1506.3L737.5 1500.0L731.3 1500.0L731.3 1487.5L725.0 1487.5L725.0 1481.3L718.8 1481.3L718.8 1475.0L712.5 1475.0L712.5 1462.5L706.3 1462.5L706.3 1456.3L700.0 1456.3L700.0 1450.0L693.8 1450.0L693.8 1443.8L687.5 1443.8L687.5 1431.3L681.3 1431.3L681.3 1425.0L675.0 1425.0L675.0 1418.8L668.8 1418.8L668.8 1412.5L662.5 1412.5L662.5 1400.0L656.3 1400.0L656.3 1393.8L650.0 1393.8L650.0 1387.5L643.8 1387.5L643.8 1375.0L637.5 1375.0L637.5 1368.8L631.3 1368.8L631.3 1362.5L625.0 1362.5L625.0 1356.3L618.8 1356.3L618.8 1343.8L612.5 1343.8L612.5 1337.5L606.3 1337.5L606.3 1331.3L600.0 1331.3L600.0 1318.8L593.8 1318.8L593.8 1312.5L587.5 1312.5L587.5 1306.3L581.3 1306.3L581.3 1300.0L575.0 1300.0L575.0 1287.5L568.8 1287.5L568.8 1281.3L562.5 1281.3L562.5 1275.0L556.3 1275.0L556.3 1262.5L550.0 1262.5L550.0 1256.3L543.8 1256.3L543.8 1250.0L537.5 1250.0L537.5 1243.8L531.3 1243.8L531.3 1231.3L525.0 1231.3L525.0 1225.0L518.8 1225.0L518.8 1218.8L512.5 1218.8L512.5 1212.5L506.3 1212.5L506.3 1200.0L500.0 1200.0L500.0 1193.8L493.8 1193.8L493.8 1187.5L487.5 1187.5L487.5 1175.0L481.3 1175.0L481.3 1168.8L475.0 1168.8L475.0 1162.5L468.8 1162.5L468.8 1156.3L462.5 1156.3L462.5 1143.8L456.3 1143.8L456.3 1137.5L450.0 1137.5L450.0 1125.0L443.8 1125.0L443.8 1118.8L437.5 1118.8L437.5 1112.5L431.3 1112.5L431.3 1106.3L425.0 1106.3L425.0 1100.0L418.8 1100.0L418.8 1087.5L412.5 1087.5L412.5 1081.3L406.3 1081.3L406.3 1068.8L400.0 1068.8L400.0 1062.5L393.8 1062.5L393.8 1056.3L387.5 1056.3L387.5 1050.0L381.3 1050.0L381.3 1043.8L375.0 1043.8L375.0 1031.3L368.8 1031.3L368.8 1025.0L362.5 1025.0L362.5 1018.8L356.3 1018.8L356.3 1012.5L350.0 1012.5L350.0 1000.0L343.8 1000.0L343.8 993.8L337.5 993.8L337.5 981.3L331.3 981.3L331.3 975.0L325.0 975.0L325.0 968.8L318.8 968.8L318.8 962.5L312.5 962.5L312.5 956.3L306.3 956.3L306.3 943.8L300.0 943.8L300.0 937.5L281.3 937.5L281.3 943.8L275.0 943.8L275.0 950.0L268.8 950.0L268.8 956.3L262.5 956.3L262.5 962.5L256.3 962.5L256.3 968.8L250.0 968.8L250.0 975.0L243.8 975.0L243.8 981.3L237.5 981.3L237.5 987.5L231.3 987.5L231.3 993.8L225.0 993.8L225.0 1000.0L218.8 1000.0L218.8 1006.3L212.5 1006.3L212.5 1012.5L206.3 1012.5L206.3 1018.8L200.0 1018.8L200.0 1025.0L193.8 1025.0L193.8 1031.3L187.5 1031.3L187.5 1037.5L181.3 1037.5L181.3 1043.8L175.0 1043.8L175.0 1050.0L168.8 1050.0L168.8 1056.3L156.3 1056.3L156.3 1062.5L150.0 1062.5L150.0 1068.8L143.8 1068.8L143.8 1075.0L137.5 1075.0L137.5 1012.5L143.8 1012.5L143.8 1006.3L150.0 1006.3L150.0 1000.0L156.3 1000.0L156.3 993.8L162.5 993.8L162.5 987.5L168.8 987.5L168.8 981.3L175.0 981.3L175.0 975.0L181.3 975.0L181.3 968.8L187.5 968.8L187.5 962.5L193.8 962.5L193.8 956.3L200.0 956.3L200.0 950.0L206.3 950.0L206.3 943.8L212.5 943.8L212.5 937.5L218.8 937.5L218.8 931.3L225.0 931.3L225.0 925.0L231.3 925.0L231.3 918.8L237.5 918.8L237.5 912.5L243.8 912.5L243.8 906.3L250.0 906.3L250.0 900.0L256.3 900.0L256.3 893.8L262.5 893.8L262.5 887.5L268.8 887.5L268.8 881.3L275.0 881.3L275.0 875.0L281.3 875.0L281.3 868.8L293.8 868.8L293.8 856.3L306.3 856.3L306.3 850.0L312.5 850.0L312.5 843.8L318.8 843.8L318.8 837.5L325.0 837.5L325.0 831.3L331.3 831.3L331.3 825.0L337.5 825.0L337.5 818.8L343.8 818.8L343.8 812.5L350.0 812.5L350.0 806.3L356.3 806.3L356.3 800.0L362.5 800.0L362.5 793.8L368.8 793.8L368.8 787.5L375.0 787.5L375.0 781.3L381.3 781.3L381.3 775.0L387.5 775.0L387.5 768.8L393.8 768.8L393.8 762.5L400.0 762.5L400.0 756.3L406.3 756.3L406.3 750.0L412.5 750.0L412.5 743.8L418.8 743.8L418.8 737.5L425.0 737.5L425.0 731.3L431.3 731.3L431.3 725.0L437.5 725.0L437.5 718.8L443.8 718.8L443.8 712.5L450.0 712.5L450.0 706.3L456.3 706.3L456.3 700.0L462.5 700.0L462.5 693.8L468.8 693.8L468.8 687.5L475.0 687.5L475.0 681.3L487.5 681.3L487.5 675.0L493.8 675.0L493.8 668.8L500.0 668.8L500.0 662.5L506.3 662.5L506.3 656.3L512.5 656.3L512.5 650.0L518.8 650.0L518.8 643.8L525.0 643.8L525.0 637.5L531.3 637.5L531.3 631.3L537.5 631.3L537.5 625.0L543.8 625.0L543.8 618.8L550.0 618.8L550.0 612.5L556.3 612.5L556.3 606.3L562.5 606.3L562.5 600.0L568.8 600.0L568.8 593.8L575.0 593.8L575.0 587.5L581.3 587.5L581.3 581.3L587.5 581.3L587.5 575.0L593.8 575.0L593.8 568.8L600.0 568.8L600.0 562.5L606.3 562.5L606.3 556.3L612.5 556.3L612.5 550.0L618.8 550.0L618.8 543.8L625.0 543.8L625.0 537.5L631.3 537.5L631.3 531.3L637.5 531.3L637.5 525.0L643.8 525.0L643.8 518.8L650.0 518.8L650.0 512.5L656.3 512.5L656.3 506.3L662.5 506.3L662.5 500.0L668.8 500.0L668.8 493.8L681.3 493.8L681.3 481.3L693.8 481.3L693.8 468.8L706.3 468.8L706.3 456.3L718.8 456.3L718.8 450.0L725.0 450.0L725.0 437.5L737.5 437.5L737.5 431.3ZM2118.8 431.3L2875.0 431.3L2875.0 481.3L2525.0 481.3L2525.0 1587.5L2468.8 1587.5L2468.8 481.3L2118.8 481.3L2118.8 431.3ZM4081.3 431.3L4137.5 431.3L4137.5 1256.3L4143.8 1256.3L4143.8 1287.5L4150.0 1287.5L4150.0 1318.8L4156.3 1318.8L4156.3 1331.3L4162.5 1331.3L4162.5 1350.0L4168.8 1350.0L4168.8 1362.5L4175.0 1362.5L4175.0 1375.0L4181.3 1375.0L4181.3 1387.5L4187.5 1387.5L4187.5 1400.0L4193.8 1400.0L4193.8 1406.3L4200.0 1406.3L4200.0 1418.8L4206.3 1418.8L4206.3 1425.0L4212.5 1425.0L4212.5 1431.3L4218.8 1431.3L4218.8 1443.8L4225.0 1443.8L4225.0 1450.0L4231.3 1450.0L4231.3 1456.3L4237.5 1456.3L4237.5 1462.5L4250.0 1462.5L4250.0 1468.8L4256.3 1468.8L4256.3 1475.0L4262.5 1475.0L4262.5 1481.3L4268.8 1481.3L4268.8 1487.5L4281.3 1487.5L4281.3 1493.8L4287.5 1493.8L4287.5 1500.0L4300.0 1500.0L4300.0 1506.3L4318.8 1506.3L4318.8 1512.5L4325.0 1512.5L4325.0 1518.8L4343.8 1518.8L4343.8 1525.0L4362.5 1525.0L4362.5 1531.3L4393.8 1531.3L4393.8 1537.5L4418.8 1537.5L4418.8 1543.8L4518.8 1543.8L4518.8 1537.5L4543.8 1537.5L4543.8 1531.3L4575.0 1531.3L4575.0 1525.0L4593.8 1525.0L4593.8 1518.8L4612.5 1518.8L4612.5 1512.5L4618.8 1512.5L4618.8 1506.3L4637.5 1506.3L4637.5 1500.0L4643.8 1500.0L4643.8 1493.8L4656.3 1493.8L4656.3 1487.5L4668.8 1487.5L4668.8 1481.3L4675.0 1481.3L4675.0 1475.0L4681.3 1475.0L4681.3 1468.8L4687.5 1468.8L4687.5 1462.5L4700.0 1462.5L4700.0 1456.3L4706.3 1456.3L4706.3 1450.0L4712.5 1450.0L4712.5 1443.8L4718.8 1443.8L4718.8 1431.3L4725.0 1431.3L4725.0 1425.0L4731.3 1425.0L4731.3 1418.8L4737.5 1418.8L4737.5 1412.5L4743.8 1412.5L4743.8 1400.0L4750.0 1400.0L4750.0 1387.5L4756.3 1387.5L4756.3 1381.3L4762.5 1381.3L4762.5 1362.5L4768.8 1362.5L4768.8 1350.0L4775.0 1350.0L4775.0 1337.5L4781.3 1337.5L4781.3 1312.5L4787.5 1312.5L4787.5 1293.8L4793.8 1293.8L4793.8 1237.5L4800.0 1237.5L4800.0 431.3L4856.3 431.3L4856.3 1262.5L4850.0 1262.5L4850.0 1306.3L4843.8 1306.3L4843.8 1331.3L4837.5 1331.3L4837.5 1356.3L4831.3 1356.3L4831.3 1368.8L4825.0 1368.8L4825.0 1387.5L4818.8 1387.5L4818.8 1400.0L4812.5 1400.0L4812.5 1412.5L4806.3 1412.5L4806.3 1418.8L4800.0 1418.8L4800.0 1431.3L4793.8 1431.3L4793.8 1443.8L4787.5 1443.8L4787.5 1450.0L4781.3 1450.0L4781.3 1456.3L4775.0 1456.3L4775.0 1462.5L4768.8 1462.5L4768.8 1475.0L4762.5 1475.0L4762.5 1481.3L4756.3 1481.3L4756.3 1487.5L4750.0 1487.5L4750.0 1493.8L4743.8 1493.8L4743.8 1500.0L4737.5 1500.0L4737.5 1506.3L4731.3 1506.3L4731.3 1512.5L4718.8 1512.5L4718.8 1518.8L4712.5 1518.8L4712.5 1525.0L4706.3 1525.0L4706.3 1531.3L4693.8 1531.3L4693.8 1537.5L4687.5 1537.5L4687.5 1543.8L4675.0 1543.8L4675.0 1550.0L4662.5 1550.0L4662.5 1556.3L4650.0 1556.3L4650.0 1562.5L4631.3 1562.5L4631.3 1568.8L4618.8 1568.8L4618.8 1575.0L4600.0 1575.0L4600.0 1581.3L4581.3 1581.3L4581.3 1587.5L4543.8 1587.5L4543.8 1593.8L4506.3 1593.8L4506.3 1600.0L4431.3 1600.0L4431.3 1593.8L4393.8 1593.8L4393.8 1587.5L4356.3 1587.5L4356.3 1581.3L4337.5 1581.3L4337.5 1575.0L4318.8 1575.0L4318.8 1568.8L4300.0 1568.8L4300.0 1562.5L4287.5 1562.5L4287.5 1556.3L4275.0 1556.3L4275.0 1550.0L4262.5 1550.0L4262.5 1543.8L4250.0 1543.8L4250.0 1537.5L4243.8 1537.5L4243.8 1531.3L4231.3 1531.3L4231.3 1525.0L4225.0 1525.0L4225.0 1518.8L4212.5 1518.8L4212.5 1512.5L4206.3 1512.5L4206.3 1506.3L4200.0 1506.3L4200.0 1500.0L4193.8 1500.0L4193.8 1493.8L4187.5 1493.8L4187.5 1487.5L4181.3 1487.5L4181.3 1481.3L4175.0 1481.3L4175.0 1475.0L4168.8 1475.0L4168.8 1468.8L4162.5 1468.8L4162.5 1456.3L4156.3 1456.3L4156.3 1450.0L4150.0 1450.0L4150.0 1443.8L4143.8 1443.8L4143.8 1431.3L4137.5 1431.3L4137.5 1425.0L4131.3 1425.0L4131.3 1412.5L4125.0 1412.5L4125.0 1400.0L4118.8 1400.0L4118.8 1387.5L4112.5 1387.5L4112.5 1375.0L4106.3 1375.0L4106.3 1356.3L4100.0 1356.3L4100.0 1337.5L4093.8 1337.5L4093.8 1306.3L4087.5 1306.3L4087.5 1281.3L4081.3 1281.3L4081.3 431.3ZM5712.5 431.3L5781.3 431.3L5781.3 437.5L5775.0 437.5L5775.0 443.8L5768.8 443.8L5768.8 450.0L5762.5 450.0L5762.5 456.3L5756.3 456.3L5756.3 462.5L5750.0 462.5L5750.0 468.8L5743.8 468.8L5743.8 475.0L5737.5 475.0L5737.5 481.3L5731.3 481.3L5731.3 487.5L5725.0 487.5L5725.0 493.8L5718.8 493.8L5718.8 500.0L5712.5 500.0L5712.5 506.3L5706.3 506.3L5706.3 512.5L5700.0 512.5L5700.0 518.8L5693.8 518.8L5693.8 525.0L5687.5 525.0L5687.5 531.3L5681.3 531.3L5681.3 537.5L5675.0 537.5L5675.0 543.8L5668.8 543.8L5668.8 550.0L5662.5 550.0L5662.5 556.3L5656.3 556.3L5656.3 562.5L5650.0 562.5L5650.0 568.8L5643.8 568.8L5643.8 575.0L5637.5 575.0L5637.5 581.3L5631.3 581.3L5631.3 587.5L5625.0 587.5L5625.0 593.8L5618.8 593.8L5618.8 600.0L5612.5 600.0L5612.5 606.3L5606.3 606.3L5606.3 612.5L5600.0 612.5L5600.0 618.8L5593.8 618.8L5593.8 625.0L5587.5 625.0L5587.5 631.3L5581.3 631.3L5581.3 637.5L5575.0 637.5L5575.0 643.8L5568.8 643.8L5568.8 650.0L5562.5 650.0L5562.5 656.3L5556.3 656.3L5556.3 662.5L5550.0 662.5L5550.0 668.8L5537.5 668.8L5537.5 681.3L5525.0 681.3L5525.0 687.5L5518.8 687.5L5518.8 693.8L5512.5 693.8L5512.5 700.0L5506.3 700.0L5506.3 706.3L5500.0 706.3L5500.0 712.5L5493.8 712.5L5493.8 718.8L5487.5 718.8L5487.5 725.0L5481.3 725.0L5481.3 731.3L5475.0 731.3L5475.0 737.5L5468.8 737.5L5468.8 743.8L5462.5 743.8L5462.5 750.0L5456.3 750.0L5456.3 756.3L5450.0 756.3L5450.0 762.5L5443.8 762.5L5443.8 768.8L5437.5 768.8L5437.5 775.0L5431.3 775.0L5431.3 781.3L5425.0 781.3L5425.0 787.5L5418.8 787.5L5418.8 793.8L5412.5 793.8L5412.5 800.0L5406.3 800.0L5406.3 806.3L5400.0 806.3L5400.0 812.5L5393.8 812.5L5393.8 818.8L5387.5 818.8L5387.5 825.0L5381.3 825.0L5381.3 831.3L5375.0 831.3L5375.0 837.5L5362.5 837.5L5362.5 843.8L5356.3 843.8L5356.3 850.0L5350.0 850.0L5350.0 856.3L5343.8 856.3L5343.8 862.5L5337.5 862.5L5337.5 868.8L5331.3 868.8L5331.3 875.0L5325.0 875.0L5325.0 881.3L5318.8 881.3L5318.8 887.5L5312.5 887.5L5312.5 893.8L5306.3 893.8L5306.3 900.0L5312.5 900.0L5312.5 906.3L5318.8 906.3L5318.8 912.5L5325.0 912.5L5325.0 918.8L5331.3 918.8L5331.3 931.3L5337.5 931.3L5337.5 937.5L5343.8 937.5L5343.8 943.8L5350.0 943.8L5350.0 956.3L5356.3 956.3L5356.3 962.5L5362.5 962.5L5362.5 968.8L5368.8 968.8L5368.8 975.0L5375.0 975.0L5375.0 987.5L5381.3 987.5L5381.3 993.8L5387.5 993.8L5387.5 1000.0L5393.8 1000.0L5393.8 1006.3L5400.0 1006.3L5400.0 1018.8L5406.3 1018.8L5406.3 1025.0L5412.5 1025.0L5412.5 1031.3L5418.8 1031.3L5418.8 1043.8L5425.0 1043.8L5425.0 1050.0L5431.3 1050.0L5431.3 1056.3L5437.5 1056.3L5437.5 1062.5L5443.8 1062.5L5443.8 1068.8L5450.0 1068.8L5450.0 1081.3L5456.3 1081.3L5456.3 1087.5L5462.5 1087.5L5462.5 1100.0L5468.8 1100.0L5468.8 1106.3L5475.0 1106.3L5475.0 1112.5L5481.3 1112.5L5481.3 1118.8L5487.5 1118.8L5487.5 1125.0L5493.8 1125.0L5493.8 1137.5L5500.0 1137.5L5500.0 1143.8L5506.3 1143.8L5506.3 1150.0L5512.5 1150.0L5512.5 1156.3L5518.8 1156.3L5518.8 1168.8L5525.0 1168.8L5525.0 1175.0L5531.3 1175.0L5531.3 1181.3L5537.5 1181.3L5537.5 1193.8L5543.8 1193.8L5543.8 1200.0L5550.0 1200.0L5550.0 1206.3L5556.3 1206.3L5556.3 1212.5L5562.5 1212.5L5562.5 1225.0L5568.8 1225.0L5568.8 1231.3L5575.0 1231.3L5575.0 1237.5L5581.3 1237.5L5581.3 1250.0L5587.5 1250.0L5587.5 1256.3L5593.8 1256.3L5593.8 1262.5L5600.0 1262.5L5600.0 1268.8L5606.3 1268.8L5606.3 1281.3L5612.5 1281.3L5612.5 1287.5L5618.8 1287.5L5618.8 1293.8L5625.0 1293.8L5625.0 1300.0L5631.3 1300.0L5631.3 1312.5L5637.5 1312.5L5637.5 1318.8L5643.8 1318.8L5643.8 1325.0L5650.0 1325.0L5650.0 1337.5L5656.3 1337.5L5656.3 1343.8L5662.5 1343.8L5662.5 1350.0L5668.8 1350.0L5668.8 1356.3L5675.0 1356.3L5675.0 1362.5L5681.3 1362.5L5681.3 1375.0L5687.5 1375.0L5687.5 1381.3L5693.8 1381.3L5693.8 1387.5L5700.0 1387.5L5700.0 1400.0L5706.3 1400.0L5706.3 1406.3L5712.5 1406.3L5712.5 1412.5L5718.8 1412.5L5718.8 1418.8L5725.0 1418.8L5725.0 1431.3L5731.3 1431.3L5731.3 1437.5L5737.5 1437.5L5737.5 1443.8L5743.8 1443.8L5743.8 1456.3L5750.0 1456.3L5750.0 1462.5L5756.3 1462.5L5756.3 1468.8L5762.5 1468.8L5762.5 1475.0L5768.8 1475.0L5768.8 1487.5L5775.0 1487.5L5775.0 1493.8L5781.3 1493.8L5781.3 1500.0L5787.5 1500.0L5787.5 1506.3L5793.8 1506.3L5793.8 1518.8L5800.0 1518.8L5800.0 1525.0L5806.3 1525.0L5806.3 1531.3L5812.5 1531.3L5812.5 1537.5L5818.8 1537.5L5818.8 1550.0L5825.0 1550.0L5825.0 1556.3L5831.3 1556.3L5831.3 1562.5L5837.5 1562.5L5837.5 1568.8L5843.8 1568.8L5843.8 1581.3L5850.0 1581.3L5850.0 1587.5L5775.0 1587.5L5775.0 1581.3L5768.8 1581.3L5768.8 1575.0L5762.5 1575.0L5762.5 1562.5L5756.3 1562.5L5756.3 1556.3L5750.0 1556.3L5750.0 1543.8L5743.8 1543.8L5743.8 1537.5L5737.5 1537.5L5737.5 1531.3L5731.3 1531.3L5731.3 1525.0L5725.0 1525.0L5725.0 1518.8L5718.8 1518.8L5718.8 1506.3L5712.5 1506.3L5712.5 1500.0L5706.3 1500.0L5706.3 1487.5L5693.8 1487.5L5693.8 1475.0L5687.5 1475.0L5687.5 1468.8L5681.3 1468.8L5681.3 1462.5L5675.0 1462.5L5675.0 1450.0L5668.8 1450.0L5668.8 1443.8L5662.5 1443.8L5662.5 1437.5L5656.3 1437.5L5656.3 1431.3L5650.0 1431.3L5650.0 1418.8L5643.8 1418.8L5643.8 1412.5L5637.5 1412.5L5637.5 1400.0L5631.3 1400.0L5631.3 1393.8L5625.0 1393.8L5625.0 1387.5L5618.8 1387.5L5618.8 1381.3L5612.5 1381.3L5612.5 1375.0L5606.3 1375.0L5606.3 1362.5L5600.0 1362.5L5600.0 1356.3L5593.8 1356.3L5593.8 1343.8L5587.5 1343.8L5587.5 1337.5L5581.3 1337.5L5581.3 1331.3L5575.0 1331.3L5575.0 1325.0L5568.8 1325.0L5568.8 1318.8L5562.5 1318.8L5562.5 1306.3L5556.3 1306.3L5556.3 1300.0L5550.0 1300.0L5550.0 1287.5L5537.5 1287.5L5537.5 1275.0L5531.3 1275.0L5531.3 1268.8L5525.0 1268.8L5525.0 1262.5L5518.8 1262.5L5518.8 1250.0L5512.5 1250.0L5512.5 1243.8L5506.3 1243.8L5506.3 1237.5L5500.0 1237.5L5500.0 1231.3L5493.8 1231.3L5493.8 1218.8L5487.5 1218.8L5487.5 1212.5L5481.3 1212.5L5481.3 1200.0L5475.0 1200.0L5475.0 1193.8L5468.8 1193.8L5468.8 1187.5L5462.5 1187.5L5462.5 1181.3L5456.3 1181.3L5456.3 1175.0L5450.0 1175.0L5450.0 1162.5L5443.8 1162.5L5443.8 1156.3L5437.5 1156.3L5437.5 1143.8L5431.3 1143.8L5431.3 1137.5L5425.0 1137.5L5425.0 1131.3L5418.8 1131.3L5418.8 1125.0L5412.5 1125.0L5412.5 1118.8L5406.3 1118.8L5406.3 1106.3L5400.0 1106.3L5400.0 1100.0L5393.8 1100.0L5393.8 1087.5L5381.3 1087.5L5381.3 1075.0L5375.0 1075.0L5375.0 1068.8L5368.8 1068.8L5368.8 1056.3L5362.5 1056.3L5362.5 1050.0L5356.3 1050.0L5356.3 1043.8L5350.0 1043.8L5350.0 1037.5L5343.8 1037.5L5343.8 1031.3L5337.5 1031.3L5337.5 1018.8L5331.3 1018.8L5331.3 1012.5L5325.0 1012.5L5325.0 1000.0L5318.8 1000.0L5318.8 993.8L5312.5 993.8L5312.5 987.5L5306.3 987.5L5306.3 981.3L5300.0 981.3L5300.0 975.0L5293.8 975.0L5293.8 962.5L5287.5 962.5L5287.5 956.3L5281.3 956.3L5281.3 943.8L5275.0 943.8L5275.0 937.5L5262.5 937.5L5262.5 943.8L5256.3 943.8L5256.3 950.0L5250.0 950.0L5250.0 956.3L5237.5 956.3L5237.5 962.5L5231.3 962.5L5231.3 968.8L5225.0 968.8L5225.0 975.0L5218.8 975.0L5218.8 981.3L5212.5 981.3L5212.5 987.5L5206.3 987.5L5206.3 993.8L5200.0 993.8L5200.0 1000.0L5193.8 1000.0L5193.8 1006.3L5187.5 1006.3L5187.5 1012.5L5181.3 1012.5L5181.3 1018.8L5175.0 1018.8L5175.0 1025.0L5168.8 1025.0L5168.8 1031.3L5156.3 1031.3L5156.3 1037.5L5150.0 1037.5L5150.0 1043.8L5143.8 1043.8L5143.8 1050.0L5137.5 1050.0L5137.5 1056.3L5131.3 1056.3L5131.3 1062.5L5125.0 1062.5L5125.0 1068.8L5118.8 1068.8L5118.8 1075.0L5112.5 1075.0L5112.5 1012.5L5118.8 1012.5L5118.8 1006.3L5125.0 1006.3L5125.0 1000.0L5131.3 1000.0L5131.3 993.8L5137.5 993.8L5137.5 987.5L5143.8 987.5L5143.8 981.3L5150.0 981.3L5150.0 975.0L5156.3 975.0L5156.3 968.8L5162.5 968.8L5162.5 962.5L5168.8 962.5L5168.8 956.3L5175.0 956.3L5175.0 950.0L5181.3 950.0L5181.3 943.8L5187.5 943.8L5187.5 937.5L5193.8 937.5L5193.8 931.3L5200.0 931.3L5200.0 925.0L5206.3 925.0L5206.3 918.8L5212.5 918.8L5212.5 912.5L5218.8 912.5L5218.8 906.3L5225.0 906.3L5225.0 900.0L5237.5 900.0L5237.5 887.5L5250.0 887.5L5250.0 881.3L5256.3 881.3L5256.3 875.0L5262.5 875.0L5262.5 868.8L5268.8 868.8L5268.8 862.5L5275.0 862.5L5275.0 856.3L5281.3 856.3L5281.3 850.0L5287.5 850.0L5287.5 843.8L5293.8 843.8L5293.8 837.5L5300.0 837.5L5300.0 831.3L5306.3 831.3L5306.3 825.0L5312.5 825.0L5312.5 818.8L5318.8 818.8L5318.8 812.5L5325.0 812.5L5325.0 806.3L5331.3 806.3L5331.3 800.0L5337.5 800.0L5337.5 793.8L5343.8 793.8L5343.8 787.5L5350.0 787.5L5350.0 781.3L5356.3 781.3L5356.3 775.0L5362.5 775.0L5362.5 768.8L5368.8 768.8L5368.8 762.5L5375.0 762.5L5375.0 756.3L5381.3 756.3L5381.3 750.0L5387.5 750.0L5387.5 743.8L5393.8 743.8L5393.8 737.5L5400.0 737.5L5400.0 731.3L5406.3 731.3L5406.3 725.0L5412.5 725.0L5412.5 718.8L5418.8 718.8L5418.8 712.5L5425.0 712.5L5425.0 706.3L5431.3 706.3L5431.3 700.0L5437.5 700.0L5437.5 693.8L5443.8 693.8L5443.8 687.5L5450.0 687.5L5450.0 681.3L5456.3 681.3L5456.3 675.0L5462.5 675.0L5462.5 668.8L5468.8 668.8L5468.8 662.5L5475.0 662.5L5475.0 656.3L5481.3 656.3L5481.3 650.0L5487.5 650.0L5487.5 643.8L5493.8 643.8L5493.8 637.5L5500.0 637.5L5500.0 631.3L5506.3 631.3L5506.3 625.0L5518.8 625.0L5518.8 618.8L5525.0 618.8L5525.0 612.5L5531.3 612.5L5531.3 606.3L5537.5 606.3L5537.5 600.0L5543.8 600.0L5543.8 593.8L5550.0 593.8L5550.0 587.5L5556.3 587.5L5556.3 581.3L5562.5 581.3L5562.5 575.0L5568.8 575.0L5568.8 568.8L5575.0 568.8L5575.0 562.5L5581.3 562.5L5581.3 556.3L5587.5 556.3L5587.5 550.0L5593.8 550.0L5593.8 543.8L5600.0 543.8L5600.0 537.5L5606.3 537.5L5606.3 531.3L5612.5 531.3L5612.5 525.0L5618.8 525.0L5618.8 518.8L5625.0 518.8L5625.0 512.5L5631.3 512.5L5631.3 506.3L5637.5 506.3L5637.5 500.0L5643.8 500.0L5643.8 493.8L5650.0 493.8L5650.0 487.5L5656.3 487.5L5656.3 481.3L5662.5 481.3L5662.5 475.0L5668.8 475.0L5668.8 468.8L5681.3 468.8L5681.3 456.3L5693.8 456.3L5693.8 450.0L5700.0 450.0L5700.0 443.8L5706.3 443.8L5706.3 437.5L5712.5 437.5L5712.5 431.3ZM6118.8 431.3L6181.3 431.3L6181.3 1587.5L6118.8 1587.5L6118.8 431.3Z"></path></svg>
</svg>
